<svg xmlns="http://www.w3.org/2000/svg" xmlns:xlink="http://www.w3.org/1999/xlink" viewBox="0 0 148 28.007">
<path fill="#8E9498" d="M23.805,4.286c-0.043,0.001-0.084,0.021-0.112,0.055c-0.664,0.798-1.445,1.493-2.324,2.064
	c-1.704,1.107-3.678,1.692-5.708,1.692c-3.831,0-5.975-1.877-7.77-3.263c-0.038-0.029-0.06-0.075-0.06-0.122
	c0-0.048,0.023-0.094,0.061-0.122c2.726-2.072,4.993-3.424,7.25-4.237c0.067-0.024,0.109-0.092,0.1-0.164
	c-0.009-0.071-0.066-0.127-0.137-0.133C14.7,0.019,14.292,0,13.881,0C6.214,0,0,6.27,0,14.003c0,4.266,1.891,8.086,4.873,10.655
	c0.039,0.033,0.092,0.045,0.141,0.03c0.049-0.014,0.088-0.052,0.103-0.101l0.566-1.823c0.024-0.076,0.101-0.121,0.177-0.104
	c7.427,1.636,10.61-2.435,10.087-4.938c-0.447-2.137-3.917-4.036-9.04-1.144c-0.04,0.022-0.087,0.025-0.128,0.01
	c-0.015-0.006-0.028-0.014-0.041-0.024l-0.016-0.013c-0.046-0.035-0.068-0.094-0.056-0.15l1.737-8.908v0
	c0.01-0.05,0.043-0.091,0.089-0.111c0.047-0.02,0.099-0.016,0.141,0.011c0.502,0.321,1.941,1.237,3.511,2.197
	c0.052,0.032,0.08,0.092,0.071,0.152c-0.054,0.387-0.247,1.792-0.351,2.365c-0.01,0.052,0.008,0.104,0.046,0.141
	c0.038,0.036,0.092,0.049,0.143,0.036c8.538-2.324,10.321,3.102,10.104,5.685c-0.493,5.858-6.881,8.958-12.587,9.035
	c-0.074,0.001-0.137,0.056-0.148,0.13c-0.011,0.074,0.032,0.146,0.103,0.17c1.37,0.456,2.833,0.703,4.355,0.703
	c7.666,0,13.88-6.269,13.88-14.004c0-3.75-1.462-7.155-3.841-9.669C23.889,4.302,23.848,4.285,23.805,4.286z M10.307,4.709
	c4.615,3.524,11.355,1.735,13.605-3.722c-0.002,0-0.005-0.001-0.007-0.001c-0.001,0.001-0.002,0.001-0.003,0.002
	c0.001,0,0.002-0.001,0.003-0.002c-4.686-0.555-9.57,0.643-13.596,3.722C10.308,4.708,10.307,4.709,10.307,4.709z M89.33,7.796
	l1.001,0.134c0.27,0.031,0.497,0.076,0.591-0.354l0.328-1.175c0.081-0.367-0.028-0.452-0.372-0.511l-0.938-0.126
	c-0.192-0.019-0.486-0.089-0.59,0.338l-0.34,1.2C88.942,7.588,89.019,7.74,89.33,7.796z M92.196,8.204l0.891,0.157
	c0.261,0.032,0.481,0.07,0.569-0.345l0.316-1.124c0.079-0.346-0.029-0.425-0.357-0.479l-0.832-0.15
	c-0.186-0.017-0.471-0.092-0.568,0.323l-0.325,1.153C91.821,8.008,91.897,8.16,92.196,8.204z M65.978,10.676h-3.929
	c-2.911,0-4.853,1.258-4.853,3.604c0,1.237,0.865,2.027,1.731,2.134v0.02c-0.338,0.13-0.719,0.556-1.121,1.045
	c-0.716,0.918-1.224,1.517-1.687,1.517c-0.087,0-0.157,0.062-0.17,0.147l-0.234,1.639c-0.012,0.072,0.009,0.144,0.057,0.196
	c0.044,0.056,0.114,0.086,0.183,0.086h0.838c1.33,0,1.815-0.532,3.124-2.198c1.012-1.342,1.393-1.769,2.004-1.769h0.444
	l-0.646,3.678c-0.013,0.072,0.007,0.146,0.053,0.2c0.047,0.058,0.113,0.09,0.187,0.09h2.27c0.117,0,0.218-0.086,0.24-0.203
	l1.749-9.896c0.013-0.072-0.007-0.146-0.052-0.202C66.118,10.708,66.051,10.676,65.978,10.676z M62.702,15.199h-1.436
	c-0.886,0-1.306-0.299-1.306-0.919c0-1.022,0.632-1.534,1.856-1.534h1.329L62.702,15.199z M59.134,5.874
	c10.923-0.458,28.202,1.587,28.202,1.587c0.221,0.031,0.417-0.064,0.476-0.26l0.177-0.55l0.004-0.006l0.297-0.938
	c0.019-0.058,0.012-0.122-0.021-0.176c-0.032-0.051-0.086-0.086-0.146-0.095c-2.142-0.288-17.912-2.356-29.377-2.062
	C47.961,3.65,38.898,5.802,36.477,6.447c-0.188,0.049-0.332,0.204-0.369,0.398l-0.261,1.404c-0.013,0.072,0.01,0.142,0.061,0.19
	c0.05,0.051,0.123,0.072,0.19,0.056c1.96-0.437,4.675-0.903,8.27-1.356l-2.396,13.43c-0.06,0.235-0.06,0.501,0.361,0.501h2.329
	c0.154,0,0.354-0.03,0.398-0.408l2.255-13.083c0.006-0.019,0.154-0.724,0.913-0.899L48.24,6.68c0.972-0.099,2.652-0.208,3.68-0.293
	l-2.494,14.221c-0.09,0.483,0.159,0.466,0.34,0.464H52.2c0.204-0.005,0.477-0.033,0.559-0.491l2.344-13.621h0.005
	c0,0,0.148-0.709,0.901-0.886C57.182,5.994,57.941,5.926,59.134,5.874z M134.324,16.97c-0.294-0.62-0.59-1.004-0.886-1.301
	l4.515-4.993h-2.471c-0.427,0-0.834,0.189-1.114,0.515l-3.167,3.689h-0.57l0.615-3.396c0.035-0.2-0.017-0.404-0.146-0.561
	c-0.128-0.156-0.318-0.247-0.519-0.247h-1.975l-1.837,10.388h1.991c0.449,0,0.832-0.324,0.911-0.769l0.625-3.517h0.315
	c0.613,0,0.972,0.661,1.626,2.049c0.738,1.62,1.118,2.238,2.448,2.238h1.076l0.381-2.068h-0.232
	C135.358,18.996,134.958,18.357,134.324,16.97z M123.161,11.317c-0.421,2.644-1.773,4.392-3.06,4.392
	c-0.676,0-0.908-0.491-0.696-1.641l0.331-2.043c0.053-0.336-0.041-0.681-0.26-0.942c-0.217-0.258-0.538-0.408-0.877-0.408h-1.368
	l-0.634,3.521c-0.084,0.468-0.127,0.895-0.127,1.279c0,1.727,0.825,2.688,2.278,2.688c1.837,0,3.018-1.216,3.779-2.518h0.043
	c-0.317,1.581-0.698,3.927-0.867,5.418h2.66c0.044-0.765,0.214-2.473,0.718-5.333l0.907-5.055h-2.723L123.161,11.317z
	 M144.411,10.399c-3.819,0-6.479,3.05-6.479,7.51c0,2.134,1.076,3.414,2.659,3.414c1.667,0,2.68-1.258,3.483-2.773h0.042
	c-0.106,0.455-0.189,1.016-0.248,1.565c-0.029,0.243,0.048,0.485,0.209,0.668c0.162,0.179,0.392,0.284,0.632,0.284h1.77
	c0.021-0.767,0.148-2.474,0.653-5.334L148,10.997C147.515,10.783,146.248,10.399,144.411,10.399z M144.898,13.172
	c-0.698,3.883-2.048,5.759-3.167,5.759c-0.655,0-0.949-0.51-0.949-1.493c0-2.923,1.52-4.95,3.209-4.95c0.4,0,0.78,0.064,0.992,0.13
	L144.898,13.172z M110.88,10.399c-3.336,0-5.825,2.987-5.825,6.591c0,2.367,1.456,4.33,4.115,4.33c3.42,0,5.783-2.837,5.783-6.591
	C114.953,12.255,113.476,10.399,110.88,10.399z M109.423,19.186c-1.054,0-1.583-0.895-1.583-2.26c0-1.919,1.076-4.393,2.807-4.393
	c1.055,0,1.562,0.81,1.562,2.24C112.209,16.669,111.239,19.186,109.423,19.186z M93.259,13.089c0-1.707-1.18-2.69-3.143-2.69
	c-3.293,0-5.91,2.88-5.91,6.762c0,2.452,1.351,4.159,3.946,4.159c2.027,0,3.315-0.81,4.137-1.493l-1.076-1.835
	c-0.653,0.555-1.541,1.089-2.617,1.089c-1.139,0-1.562-0.705-1.625-1.899C90.391,16.799,93.259,15.624,93.259,13.089z
	 M87.118,15.411c0.36-1.513,1.245-2.859,2.533-2.859c0.655,0,0.97,0.28,0.97,0.855C90.621,14.495,89.207,15.199,87.118,15.411z
	 M101.406,10.399c-1.795,0-2.744,1.237-3.59,2.707h-0.042c0.099-0.377,0.184-0.727,0.261-1.085c0.07-0.328-0.011-0.672-0.219-0.932
	c-0.208-0.26-0.524-0.412-0.855-0.412h-1.318l-2.723,15.038h1.539c0.686,0,1.274-0.495,1.397-1.179l0.609-3.365
	c0.211,0.064,0.677,0.149,1.435,0.149c3.566,0,6.143-2.923,6.143-7.403C104.044,11.785,103.029,10.399,101.406,10.399z
	 M97.901,19.274c-0.59,0-0.886-0.088-1.055-0.128l0.106-0.577c0.78-3.818,2.109-5.76,3.314-5.76c0.653,0,0.928,0.62,0.928,1.558
	C101.195,17.416,99.717,19.274,97.901,19.274z M80.727,10.399c-1.753,0-2.807,1.151-3.674,2.517h-0.041
	c0-1.429-0.57-2.517-2.175-2.517c-1.899,0-2.933,1.45-3.61,2.645h-0.041c0.111-0.439,0.242-1.086,0.336-1.639
	c0.031-0.181-0.019-0.367-0.137-0.507c-0.118-0.14-0.29-0.222-0.473-0.222h-1.923l-1.735,9.708c-0.031,0.167,0.015,0.34,0.125,0.474
	c0.108,0.13,0.269,0.206,0.438,0.206h2.039l0.148-0.853c1.012-5.781,2.406-7.381,3.503-7.381c0.801,0,0.885,0.767,0.697,1.792
	l-1.044,5.682c-0.034,0.186,0.016,0.381,0.137,0.528c0.121,0.146,0.3,0.232,0.49,0.232h1.977l0.148-0.853
	c0.994-5.738,2.386-7.381,3.526-7.381c0.759,0,0.865,0.705,0.674,1.792l-1.045,5.803c-0.029,0.157,0.013,0.32,0.115,0.445
	c0.102,0.122,0.251,0.194,0.411,0.194h2.06l1.161-6.591c0.106-0.534,0.148-1.002,0.148-1.429
	C82.963,11.273,82.14,10.399,80.727,10.399z"/>
</svg>
