<svg xmlns="http://www.w3.org/2000/svg" viewBox="0 0 22 12.8" enable-background="new 0 0 22 12.8"><style type="text/css">.st0{fill-rule:evenodd;clip-rule:evenodd;fill:#D9CABB;}</style><path class="st0" d="M10.8 12.8h1.3s.4 0 .6-.3c.2-.2.2-.6.2-.6s0-1.8.8-2.1c.8-.3 1.8 1.7 2.9 2.5.8.6 1.5.4 1.5.4h2.9s1.5-.1.8-1.4c-.1-.1-.4-.9-2.2-2.6-1.8-1.8-1.6-1.5.6-4.5 1.4-1.8 1.9-3 1.7-3.5-.2-.5-1.1-.4-1.1-.4h-3.3s-.2 0-.4.1c-.2.3-.3.6-.3.6s-.5 1.5-1.2 2.7c-1.5 2.6-2.1 2.7-2.3 2.5-.6-.4-.4-1.5-.4-2.3 0-2.5.4-3.5-.7-3.8-.4 0-.7-.1-1.6-.1-1.2 0-2.2 0-2.8.3-.3.2-.6.6-.5.6.2 0 .7.1 1 .5.4.5.3 1.6.3 1.6s.2 2.9-.5 3.3c-.4.2-1-.3-2.3-2.6-.7-1.2-1.2-2.6-1.2-2.6s-.1-.2-.2-.3c-.2-.2-.5-.3-.5-.3h-3.1s-.5 0-.6.2c-.2.2 0 .6 0 .6s2.5 5.9 5.2 8.9c2.5 2.8 5.4 2.6 5.4 2.6z"/></svg>