<svg xmlns="http://www.w3.org/2000/svg" viewBox="0 0 12 20" enable-background="new 0 0 12 20"><style type="text/css">.st0{fill-rule:evenodd;clip-rule:evenodd;fill:#D9CABB;}</style><path class="st0" d="M6 10.1c2.8 0 5-2.3 5-5.1 0-2.7-2.2-5-5-5s-5 2.3-5 5.1c-.1 2.7 2.2 5 5 5zm0-7.5c1.4 0 2.5 1.1 2.5 2.5s-1.1 2.5-2.5 2.5-2.5-1.2-2.5-2.5c0-1.4 1.1-2.5 2.5-2.5zm5.8 8.1c-.3-.6-1.1-1.1-2.1-.2-1.4 1.1-3.7 1.1-3.7 1.1s-2.3 0-3.7-1.1c-1-.8-1.8-.4-2.1.2-.5 1 .1 1.5 1.3 2.3 1.1.7 2.6 1 3.5 1.1l-.8.8-3 3c-.5.5-.5 1.2 0 1.6l.1.1c.5.5 1.2.5 1.6 0l3-3 3 3c.5.5 1.2.5 1.6 0l.1-.1c.5-.5.5-1.2 0-1.6l-3-3-.6-.8c1-.1 2.4-.4 3.5-1.1 1.2-.8 1.8-1.3 1.3-2.3z"/></svg>