<svg xmlns="http://www.w3.org/2000/svg" viewBox="0 0 19.8 23.5" enable-background="new 0 0 19.8 23.5"><style type="text/css">.st0{fill-rule:evenodd;clip-rule:evenodd;fill:#D9CABB;}</style><path class="st0" d="M9.6 8.4c1.5 0 2.9.7 4 1.7 0-.5.3-.9.8-.9h.1c.7 0 .9.7.9.9v7.8c-.1.5.5.8.9.4 1.3-1.3 2.8-6.6-.8-9.7-3.4-2.8-7.8-2.3-10.1-.7-2.5 1.7-4.1 5.5-2.5 9.1 1.7 3.9 6.5 5.1 9.4 3.9 1.5-.6 2.1 1.4.6 2-2.3 1-8.7.9-11.6-4.3-2-3.5-1.9-9.6 3.4-12.8 4.1-2.4 9.5-1.8 12.7 1.6 3.4 3.5 3.2 10.2-.1 12.8-1.5 1.2-3.7 0-3.7-1.7v-.6c-1 1-2.4 1.6-3.9 1.6-3 0-5.6-2.6-5.6-5.6-.2-2.8 2.5-5.5 5.5-5.5zm3.7 5.5c-.1-2.2-1.7-3.5-3.7-3.5h-.1c-2.3 0-3.5 1.8-3.5 3.8 0 2.3 1.5 3.7 3.5 3.7 2.2 0 3.7-1.6 3.8-3.6v-.4z"/></svg>